<?xml version="1.0" encoding="UTF-8" standalone="no"?>
<!DOCTYPE svg PUBLIC "-//W3C//DTD SVG 1.1//EN" "http://www.w3.org/Graphics/SVG/1.1/DTD/svg11.dtd">
<svg version="1.1" xmlns:dc="http://purl.org/dc/elements/1.1/" xmlns="http://www.w3.org/2000/svg" xmlns:xl="http://www.w3.org/1999/xlink" viewBox="566 426 376 62" width="376" height="62">
  <defs/>
  <g id="Canvas_7" fill="none" stroke-opacity="1" stroke-dasharray="none" fill-opacity="1" stroke="none">
    <title>Canvas 7</title>
    <g id="Canvas_7_Layer_1">
      <title>Layer 1</title>
      <g id="Graphic_13"/>
      <g id="Group_2">
        <g id="Graphic_11">
          <path d="M 618.43495 445.09686 L 618.43495 471.8608 L 607.4678 465.6226 L 607.4942 451.35216 Z" fill="white"/>
        </g>
        <g id="Graphic_10">
          <path d="M 566.67385 471.8608 L 566.67385 445.09686 L 577.641 451.33507 L 577.61464 465.6055 Z" fill="white"/>
        </g>
        <g id="Graphic_9">
          <path d="M 568.02265 442.62234 L 591.2009 429.2404 L 591.282 441.85733 L 578.9103 448.9697 Z" fill="white"/>
        </g>
        <g id="Graphic_8">
          <path d="M 593.94755 429.2404 L 617.1258 442.62234 L 606.23975 449.0011 L 593.8944 441.843 Z" fill="white"/>
        </g>
        <g id="Graphic_7">
          <path d="M 617.1258 474.1397 L 593.94755 487.52165 L 593.8664 474.9047 L 606.23814 467.79234 Z" fill="white"/>
        </g>
        <g id="Graphic_6">
          <path d="M 591.2009 487.52165 L 568.02265 474.1397 L 578.9087 467.76095 L 591.254 474.919 Z" fill="white"/>
        </g>
        <g id="Graphic_5">
          <path d="M 591.27635 459.1966 L 591.24295 471.7054 L 580.3933 465.4799 L 580.4267 452.9711 Z" fill="white"/>
        </g>
        <g id="Graphic_4">
          <path d="M 593.8721 459.1966 L 604.7217 452.9711 L 604.7551 465.4799 L 593.9055 471.7054 Z" fill="white"/>
        </g>
        <g id="Graphic_3">
          <path d="M 592.5544 456.8462 L 581.73816 450.56287 L 592.5544 444.27955 L 603.37065 450.56287 Z" fill="white"/>
        </g>
      </g>
      <g id="Group_51">
        <g id="Graphic_47">
          <path d="M 645.4245 484.34124 L 645.4245 442.20324 C 645.4245 440.4295 645.8591 438.8037 646.7283 437.3258 C 647.5976 435.8479 648.77114 434.67437 650.249 433.8051 C 651.7269 432.93586 653.3527 432.50124 655.1265 432.50124 L 687.5242 432.50124 C 689.298 432.50124 690.9238 432.93586 692.40165 433.8051 C 693.8795 434.67437 695.05946 435.8479 695.9415 437.3258 C 696.8235 438.8037 697.2645 440.4295 697.2645 442.20324 L 697.2645 484.34124 L 688.548 484.34124 L 688.548 466.582 L 654.0645 466.582 L 654.0645 484.34124 Z M 654.0645 457.90374 L 688.548 457.90374 L 688.548 442.507 C 688.548 442.144 688.4175 441.832 688.1565 441.571 C 687.8955 441.31 687.5835 441.1795 687.2205 441.1795 L 655.3931 441.1795 C 655.0293 441.1795 654.717 441.31 654.456 441.571 C 654.19496 441.832 654.0645 442.144 654.0645 442.507 Z" fill="white"/>
        </g>
        <g id="Graphic_48">
          <path d="M 724.4725 484.34124 L 724.4725 432.50124 L 734.3241 432.50124 L 753.7652 455.66724 L 773.1681 432.50124 L 783.0568 432.50124 L 783.0568 484.34124 L 774.3786 484.34124 L 774.3786 444.6276 L 753.7652 469.1751 L 733.1125 444.66586 L 733.1125 484.34124 Z" fill="white"/>
        </g>
        <g id="Graphic_49">
          <path d="M 810.3605 484.34124 L 810.3605 432.42924 L 819.0005 432.42924 L 819.0005 475.663 L 862.2005 475.663 L 862.2005 484.34124 Z" fill="white"/>
        </g>
        <g id="Graphic_50">
          <path d="M 895.0785 484.34124 C 893.2927 484.34124 891.6639 483.9066 890.192 483.03736 C 888.7201 482.1681 887.5496 480.99756 886.6803 479.5257 C 885.8111 478.0538 885.3765 476.425 885.3765 474.63924 L 885.3765 442.20324 C 885.3765 440.4175 885.8111 438.7887 886.6803 437.3168 C 887.5496 435.8449 888.7201 434.67437 890.192 433.8051 C 891.6639 432.93586 893.2927 432.50124 895.0785 432.50124 L 937.0725 432.50124 L 937.0725 441.1795 L 896.5972 441.1795 C 895.8292 441.1795 895.2071 441.41123 894.7308 441.87474 C 894.2546 442.33824 894.0165 442.96636 894.0165 443.7591 L 894.0165 473.08336 C 894.0165 473.85136 894.2546 474.4733 894.7308 474.9492 C 895.2071 475.42505 895.8292 475.663 896.5972 475.663 L 937.0725 475.663 L 937.0725 484.34124 Z" fill="white"/>
        </g>
      </g>
    </g>
  </g>
</svg>
