<?xml version="1.0" encoding="UTF-8" standalone="no"?>
<svg version="1.1" xmlns="http://www.w3.org/2000/svg" viewBox="571 426 371 86" width="371" height="86">
  <g id="wordmark" fill="white">
    <g id="hypercube">
      <path d="M 623.5772 442.7577 L 623.5772 469.5216 L 612.61 463.2834 L 612.6364 449.013 Z"/>
      <path d="M 571.8161 469.5216 L 571.8161 442.7577 L 582.7833 448.9959 L 582.7569 463.2663 Z"/>
      <path d="M 573.1649 440.28315 L 596.3431 426.9012 L 596.4243 439.51815 L 584.05254 446.6305 Z"/>
      <path d="M 599.0898 426.9012 L 622.268 440.28315 L 611.382 446.6619 L 599.03665 439.50384 Z"/>
      <path d="M 622.268 471.8005 L 599.0898 485.1825 L 599.00866 472.5655 L 611.3804 465.45316 Z"/>
      <path d="M 596.3431 485.1825 L 573.1649 471.8005 L 584.0509 465.42177 L 596.3963 472.5798 Z"/>
      <path d="M 596.4186 456.8574 L 596.3852 469.3662 L 585.53556 463.14074 L 585.56896 450.63194 Z"/>
      <path d="M 599.0143 456.8574 L 609.864 450.63194 L 609.8974 463.14074 L 599.0477 469.3662 Z"/>
      <path d="M 597.69665 454.507 L 586.8804 448.2237 L 597.69665 441.94037 L 608.5129 448.2237 Z"/>
    </g>
    <g id="subtitle">
      <path d="M 572.6861 507.88595 L 572.6861 499.0392 C 572.6861 498.6819 572.7734 498.3543 572.948 498.0565 C 573.1226 497.7587 573.3588 497.5225 573.65665 497.34786 C 573.95446 497.17325 574.28204 497.08595 574.6394 497.08595 L 581.5274 497.08595 C 581.8848 497.08595 582.21235 497.17325 582.51016 497.34786 C 582.808 497.5225 583.0451 497.7587 583.2215 498.0565 C 583.3979 498.3543 583.4861 498.6819 583.4861 499.0392 L 583.4861 507.88595 L 581.8551 507.88595 L 581.8551 504.11063 L 574.3061 504.11063 L 574.3061 507.88595 Z M 574.3061 502.48524 L 581.8551 502.48524 L 581.8551 499.08306 C 581.8551 498.98134 581.81856 498.89395 581.7455 498.8209 C 581.6725 498.74786 581.58516 498.71134 581.4836 498.71134 L 574.6776 498.71134 C 574.576 498.71134 574.4887 498.74786 574.4157 498.8209 C 574.3426 498.89395 574.3061 498.98134 574.3061 499.08306 Z"/>
      <path d="M 586.6661 511.33595 L 586.6661 499.18595 L 593.56844 499.18595 C 593.923 499.18595 594.248 499.2748 594.54356 499.45255 C 594.8391 499.6303 595.07485 499.8664 595.2508 500.1608 C 595.4267 500.4553 595.5147 500.77907 595.5147 501.1322 L 595.5147 505.9397 C 595.5147 506.2928 595.4267 506.6166 595.2508 506.91106 C 595.07485 507.2055 594.8391 507.4416 594.54356 507.61934 C 594.248 507.7971 593.923 507.88595 593.56844 507.88595 L 588.2847 507.88595 L 588.2847 511.33595 Z M 588.6658 506.26735 L 593.5246 506.26735 C 593.6262 506.26735 593.7135 506.2308 593.7865 506.1578 C 593.8596 506.08473 593.8961 505.99743 593.8961 505.89587 L 593.8961 501.176 C 593.8961 501.07446 593.8596 500.98716 593.7865 500.9141 C 593.7135 500.84106 593.6262 500.80454 593.5246 500.80454 L 588.6658 500.80454 C 588.5642 500.80454 588.4753 500.84106 588.3991 500.9141 C 588.3228 500.98716 588.2847 501.07446 588.2847 501.176 L 588.2847 505.89587 C 588.2847 505.99743 588.3228 506.08473 588.3991 506.1578 C 588.4753 506.2308 588.5642 506.26735 588.6658 506.26735 Z"/>
      <path d="M 598.1261 511.33595 L 598.1261 499.18595 L 605.02844 499.18595 C 605.383 499.18595 605.708 499.2748 606.00356 499.45255 C 606.2991 499.6303 606.53485 499.8664 606.7108 500.1608 C 606.8867 500.4553 606.9747 500.77907 606.9747 501.1322 L 606.9747 505.9397 C 606.9747 506.2928 606.8867 506.6166 606.7108 506.91106 C 606.53485 507.2055 606.2991 507.4416 606.00356 507.61934 C 605.708 507.7971 605.383 507.88595 605.02844 507.88595 L 599.7447 507.88595 L 599.7447 511.33595 Z M 600.1258 506.26735 L 604.9846 506.26735 C 605.0862 506.26735 605.1735 506.2308 605.2465 506.1578 C 605.3196 506.08473 605.3561 505.99743 605.3561 505.89587 L 605.3561 501.176 C 605.3561 501.07446 605.3196 500.98716 605.2465 500.9141 C 605.1735 500.84106 605.0862 500.80454 604.9846 500.80454 L 600.1258 500.80454 C 600.0242 500.80454 599.9353 500.84106 599.8591 500.9141 C 599.7828 500.98716 599.7447 501.07446 599.7447 501.176 L 599.7447 505.89587 C 599.7447 505.99743 599.7828 506.08473 599.8591 506.1578 C 599.9353 506.2308 600.0242 506.26735 600.1258 506.26735 Z"/>
      <path d="M 611.50235 507.88595 C 611.1492 507.88595 610.82544 507.7971 610.531 507.61934 C 610.2365 507.4416 610.00044 507.2055 609.8227 506.91106 C 609.645 506.6166 609.5561 506.2928 609.5561 505.9397 L 609.5561 496.33056 L 611.1801 496.33056 L 611.1801 505.89587 C 611.1801 505.99743 611.2166 506.08473 611.28965 506.1578 C 611.3627 506.2308 611.4501 506.26735 611.5518 506.26735 L 613.1256 506.26735 L 613.1256 507.88595 Z"/>
      <path d="M 615.94185 507.88595 L 615.94185 499.18595 L 617.56044 499.18595 L 617.56044 507.88595 Z M 615.94185 497.95993 L 615.94185 496.33595 L 617.56044 496.33595 L 617.56044 497.95993 Z"/>
      <path d="M 622.66276 507.88595 C 622.3096 507.88595 621.98585 507.7971 621.6914 507.61934 C 621.39694 507.4416 621.16085 507.2055 620.9831 506.91106 C 620.8054 506.6166 620.7165 506.2928 620.7165 505.9397 L 620.7165 501.1322 C 620.7165 500.77907 620.8054 500.4553 620.9831 500.1608 C 621.16085 499.8664 621.39694 499.6303 621.6914 499.45255 C 621.98585 499.2748 622.3096 499.18595 622.66276 499.18595 L 627.60924 499.18595 C 627.9727 499.18595 628.30135 499.2746 628.59526 499.45196 C 628.8892 499.6293 629.1243 499.8657 629.3006 500.1612 C 629.47694 500.45665 629.5651 500.7803 629.5651 501.1322 L 629.5651 504.34806 L 622.3351 504.34806 L 622.3351 505.89587 C 622.3351 505.99743 622.3716 506.08473 622.4447 506.1578 C 622.5177 506.2308 622.605 506.26735 622.7066 506.26735 L 629.5651 506.26735 L 629.5651 507.88595 Z M 622.3351 502.8333 L 627.9369 502.8333 L 627.9369 501.176 C 627.9369 501.07446 627.9004 500.98716 627.8273 500.9141 C 627.7543 500.84106 627.667 500.80454 627.5654 500.80454 L 622.7066 500.80454 C 622.605 500.80454 622.5177 500.84106 622.4447 500.9141 C 622.3716 500.98716 622.3351 501.07446 622.3351 501.176 Z"/>
      <path d="M 634.1324 507.88595 C 633.7689 507.88595 633.44026 507.7973 633.14635 507.61993 C 632.85245 507.4426 632.6173 507.2062 632.441 506.9107 C 632.2647 506.61524 632.1765 506.2916 632.1765 505.9397 L 632.1765 501.1322 C 632.1765 500.77907 632.2645 500.4553 632.4404 500.1608 C 632.61635 499.8664 632.8514 499.6303 633.1455 499.45255 C 633.4397 499.2748 633.7686 499.18595 634.1324 499.18595 L 639.4119 499.18595 L 639.4119 496.33595 L 641.0305 496.33595 L 641.0305 507.88595 Z M 634.1816 506.26735 L 639.0404 506.26735 C 639.142 506.26735 639.2293 506.2308 639.3023 506.1578 C 639.3754 506.08473 639.4119 505.99743 639.4119 505.89587 L 639.4119 501.176 C 639.4119 501.07446 639.3754 500.98716 639.3023 500.9141 C 639.2293 500.84106 639.142 500.80454 639.0404 500.80454 L 634.1816 500.80454 C 634.08 500.80454 633.9927 500.84106 633.9197 500.9141 C 633.8466 500.98716 633.8101 501.07446 633.8101 501.176 L 633.8101 505.89587 C 633.8101 505.99743 633.8466 506.08473 633.9197 506.1578 C 633.9927 506.2308 634.08 506.26735 634.1816 506.26735 Z"/>
      <path d="M 650.0302 507.88595 L 650.0302 497.08595 L 651.9633 497.08595 L 656.14735 502.07017 L 660.3258 497.08595 L 662.2645 497.08595 L 662.2645 507.88595 L 660.6389 507.88595 L 660.6389 499.25954 L 656.14735 504.6047 L 651.6502 499.26493 L 651.6502 507.88595 Z"/>
      <path d="M 667.2817 507.88595 C 666.92715 507.88595 666.6021 507.7971 666.3066 507.61934 C 666.011 507.4416 665.7753 507.2055 665.5993 506.91106 C 665.4234 506.6166 665.3354 506.2928 665.3354 505.9397 L 665.3354 502.72384 L 672.5558 502.72384 L 672.5558 501.176 C 672.5558 501.07446 672.5193 500.98716 672.44625 500.9141 C 672.3732 500.84106 672.2859 500.80454 672.1843 500.80454 L 665.3354 500.80454 L 665.3354 499.18595 L 672.2282 499.18595 C 672.5916 499.18595 672.9203 499.2746 673.2142 499.45196 C 673.5081 499.6293 673.7432 499.8657 673.9195 500.1612 C 674.0959 500.45665 674.184 500.7803 674.184 501.1322 L 674.184 507.88595 Z M 667.3255 506.26735 L 672.5558 506.26735 L 672.5558 504.2386 L 666.954 504.2386 L 666.954 505.89587 C 666.954 505.99743 666.99055 506.08473 667.0636 506.1578 C 667.13664 506.2308 667.22395 506.26735 667.3255 506.26735 Z"/>
      <path d="M 678.88986 507.88595 C 678.5367 507.88595 678.21294 507.7971 677.9185 507.61934 C 677.624 507.4416 677.38794 507.2055 677.2102 506.91106 C 677.0325 506.6166 676.9436 506.2928 676.9436 505.9397 L 676.9436 501.1322 C 676.9436 500.77907 677.0325 500.4553 677.2102 500.1608 C 677.38794 499.8664 677.624 499.6303 677.9185 499.45255 C 678.21294 499.2748 678.5367 499.18595 678.88986 499.18595 L 685.7676 499.18595 L 685.7676 500.80454 L 678.9337 500.80454 C 678.8321 500.80454 678.7448 500.84106 678.6718 500.9141 C 678.5987 500.98716 678.5622 501.07446 678.5622 501.176 L 678.5622 505.89587 C 678.5622 505.99743 678.5987 506.08473 678.6718 506.1578 C 678.7448 506.2308 678.8321 506.26735 678.9337 506.26735 L 685.7922 506.26735 L 685.7922 507.88595 Z"/>
      <path d="M 688.612 507.88595 L 688.612 496.33595 L 690.2306 496.33595 L 690.2306 499.18595 L 695.5143 499.18595 C 695.86745 499.18595 696.1912 499.2748 696.4856 499.45255 C 696.77995 499.6303 697.01604 499.8664 697.19386 500.1608 C 697.3717 500.4553 697.4606 500.77907 697.4606 501.1322 L 697.4606 507.88595 L 695.842 507.88595 L 695.842 501.176 C 695.842 501.07446 695.8055 500.98716 695.7324 500.9141 C 695.6594 500.84106 695.5721 500.80454 695.4705 500.80454 L 690.6117 500.80454 C 690.5101 500.80454 690.4212 500.84106 690.34495 500.9141 C 690.2687 500.98716 690.2306 501.07446 690.2306 501.176 L 690.2306 507.88595 Z"/>
      <path d="M 700.1496 507.88595 L 700.1496 499.18595 L 701.7682 499.18595 L 701.7682 507.88595 Z M 700.1496 497.95993 L 700.1496 496.33595 L 701.7682 496.33595 L 701.7682 497.95993 Z"/>
      <path d="M 704.9906 507.88595 L 704.9906 499.18595 L 711.8929 499.18595 C 712.24744 499.18595 712.5725 499.2748 712.868 499.45255 C 713.1636 499.6303 713.3993 499.8664 713.57526 500.1608 C 713.7512 500.4553 713.8392 500.77907 713.8392 501.1322 L 713.8392 507.88595 L 712.2206 507.88595 L 712.2206 501.176 C 712.2206 501.07446 712.18404 500.98716 712.111 500.9141 C 712.03795 500.84106 711.95065 500.80454 711.8491 500.80454 L 706.99026 500.80454 C 706.8887 500.80454 706.7998 500.84106 706.7235 500.9141 C 706.6473 500.98716 706.6092 501.07446 706.6092 501.176 L 706.6092 507.88595 Z"/>
      <path d="M 718.6676 507.88595 C 718.3145 507.88595 717.9907 507.7971 717.6963 507.61934 C 717.4018 507.4416 717.1657 507.2055 716.988 506.91106 C 716.81024 506.6166 716.7214 506.2928 716.7214 505.9397 L 716.7214 501.1322 C 716.7214 500.77907 716.81024 500.4553 716.988 500.1608 C 717.1657 499.8664 717.4018 499.6303 717.6963 499.45255 C 717.9907 499.2748 718.3145 499.18595 718.6676 499.18595 L 723.6141 499.18595 C 723.97755 499.18595 724.3062 499.2746 724.6001 499.45196 C 724.894 499.6293 725.12915 499.8657 725.3055 500.1612 C 725.4818 500.45665 725.57 500.7803 725.57 501.1322 L 725.57 504.34806 L 718.34 504.34806 L 718.34 505.89587 C 718.34 505.99743 718.3765 506.08473 718.4495 506.1578 C 718.5226 506.2308 718.6099 506.26735 718.71146 506.26735 L 725.57 506.26735 L 725.57 507.88595 Z M 718.34 502.8333 L 723.9418 502.8333 L 723.9418 501.176 C 723.9418 501.07446 723.90524 500.98716 723.8322 500.9141 C 723.75915 500.84106 723.67185 500.80454 723.5703 500.80454 L 718.71146 500.80454 C 718.6099 500.80454 718.5226 500.84106 718.4495 500.9141 C 718.3765 500.98716 718.34 501.07446 718.34 501.176 Z"/>
      <path d="M 734.545 507.88595 L 734.545 497.07095 L 736.165 497.07095 L 736.165 506.26056 L 745.345 506.26056 L 745.345 507.88595 Z"/>
      <path d="M 749.5863 507.88595 C 749.23315 507.88595 748.9094 507.7971 748.6149 507.61934 C 748.3205 507.4416 748.0844 507.2055 747.9066 506.91106 C 747.7289 506.6166 747.64 506.2928 747.64 505.9397 L 747.64 501.1322 C 747.64 500.77907 747.7289 500.4553 747.9066 500.1608 C 748.0844 499.8664 748.3205 499.6303 748.6149 499.45255 C 748.9094 499.2748 749.23315 499.18595 749.5863 499.18595 L 754.5328 499.18595 C 754.8962 499.18595 755.2249 499.2746 755.5188 499.45196 C 755.8127 499.6293 756.0478 499.8657 756.2241 500.1612 C 756.4005 500.45665 756.4886 500.7803 756.4886 501.1322 L 756.4886 504.34806 L 749.2586 504.34806 L 749.2586 505.89587 C 749.2586 505.99743 749.29515 506.08473 749.3682 506.1578 C 749.4412 506.2308 749.5285 506.26735 749.6301 506.26735 L 756.4886 506.26735 L 756.4886 507.88595 Z M 749.2586 502.8333 L 754.8604 502.8333 L 754.8604 501.176 C 754.8604 501.07446 754.8239 500.98716 754.75085 500.9141 C 754.6778 500.84106 754.5905 500.80454 754.4889 500.80454 L 749.6301 500.80454 C 749.5285 500.80454 749.4412 500.84106 749.3682 500.9141 C 749.29515 500.98716 749.2586 501.07446 749.2586 501.176 Z"/>
      <path d="M 761.4813 507.88595 C 761.12675 507.88595 760.8017 507.7971 760.5062 507.61934 C 760.2106 507.4416 759.9749 507.2055 759.7989 506.91106 C 759.623 506.6166 759.535 506.2928 759.535 505.9397 L 759.535 502.72384 L 766.7554 502.72384 L 766.7554 501.176 C 766.7554 501.07446 766.7189 500.98716 766.64585 500.9141 C 766.5728 500.84106 766.4855 500.80454 766.3839 500.80454 L 759.535 500.80454 L 759.535 499.18595 L 766.4278 499.18595 C 766.7912 499.18595 767.1199 499.2746 767.4138 499.45196 C 767.7077 499.6293 767.9428 499.8657 768.1191 500.1612 C 768.2955 500.45665 768.3836 500.7803 768.3836 501.1322 L 768.3836 507.88595 Z M 761.5251 506.26735 L 766.7554 506.26735 L 766.7554 504.2386 L 761.1536 504.2386 L 761.1536 505.89587 C 761.1536 505.99743 761.1901 506.08473 761.2632 506.1578 C 761.3362 506.2308 761.4235 506.26735 761.5251 506.26735 Z"/>
      <path d="M 771.2496 507.88595 L 771.2496 501.1322 C 771.2496 500.77907 771.3385 500.4553 771.5162 500.1608 C 771.694 499.8664 771.9306 499.6303 772.2261 499.45255 C 772.5217 499.2748 772.8468 499.18595 773.2015 499.18595 L 778.0587 499.18595 L 778.0587 500.80454 L 773.2397 500.80454 C 773.1381 500.80454 773.0508 500.84106 772.9778 500.9141 C 772.9047 500.98716 772.8682 501.07446 772.8682 501.176 L 772.8682 507.88595 Z"/>
      <path d="M 780.6457 507.88595 L 780.6457 499.18595 L 787.54805 499.18595 C 787.9026 499.18595 788.2276 499.2748 788.5232 499.45255 C 788.8187 499.6303 789.0545 499.8664 789.2304 500.1608 C 789.4063 500.4553 789.4943 500.77907 789.4943 501.1322 L 789.4943 507.88595 L 787.8757 507.88595 L 787.8757 501.176 C 787.8757 501.07446 787.8392 500.98716 787.7661 500.9141 C 787.6931 500.84106 787.6058 500.80454 787.5042 500.80454 L 782.6454 500.80454 C 782.5438 500.80454 782.4549 500.84106 782.3787 500.9141 C 782.3024 500.98716 782.2643 501.07446 782.2643 501.176 L 782.2643 507.88595 Z"/>
      <path d="M 792.5557 507.88595 L 792.5557 499.18595 L 794.1743 499.18595 L 794.1743 507.88595 Z M 792.5557 497.95993 L 792.5557 496.33595 L 794.1743 496.33595 L 794.1743 497.95993 Z"/>
      <path d="M 797.3967 507.88595 L 797.3967 499.18595 L 804.299 499.18595 C 804.6535 499.18595 804.9786 499.2748 805.2741 499.45255 C 805.5697 499.6303 805.8054 499.8664 805.9813 500.1608 C 806.1573 500.4553 806.24525 500.77907 806.24525 501.1322 L 806.24525 507.88595 L 804.6267 507.88595 L 804.6267 501.176 C 804.6267 501.07446 804.5901 500.98716 804.5171 500.9141 C 804.444 500.84106 804.3567 500.80454 804.2552 500.80454 L 799.3963 500.80454 C 799.2948 500.80454 799.2059 500.84106 799.1296 500.9141 C 799.0534 500.98716 799.01525 501.07446 799.01525 501.176 L 799.01525 507.88595 Z"/>
      <path d="M 810.6099 511.32095 L 810.6099 509.68735 L 815.9412 509.68735 C 816.0429 509.68735 816.1303 509.6508 816.2034 509.5778 C 816.2764 509.50473 816.3129 509.41743 816.3129 509.31587 L 816.3129 507.88595 L 811.0388 507.88595 C 810.684 507.88595 810.3586 507.7973 810.0629 507.61993 C 809.7671 507.4426 809.5305 507.2062 809.3531 506.9107 C 809.1756 506.61524 809.0869 506.2916 809.0869 505.9397 L 809.0869 501.1322 C 809.0869 500.77907 809.1758 500.4553 809.3535 500.1608 C 809.5313 499.8664 809.7679 499.6303 810.0634 499.45255 C 810.359 499.2748 810.6841 499.18595 811.0388 499.18595 L 815.98505 499.18595 C 816.3488 499.18595 816.6777 499.2748 816.9719 499.45255 C 817.266 499.6303 817.4995 499.8664 817.6723 500.1608 C 817.8451 500.4553 817.9315 500.77907 817.9315 501.1322 L 817.9315 509.3651 C 817.9315 509.7285 817.8455 510.0572 817.6734 510.3511 C 817.5013 510.645 817.2673 510.8801 816.9715 511.05645 C 816.67575 511.2328 816.3469 511.32095 815.98505 511.32095 Z M 811.077 506.26735 L 815.9412 506.26735 C 816.0429 506.26735 816.1303 506.2308 816.2034 506.1578 C 816.2764 506.08473 816.3129 505.99743 816.3129 505.89587 L 816.3129 501.176 C 816.3129 501.07446 816.2764 500.98716 816.2034 500.9141 C 816.1303 500.84106 816.0429 500.80454 815.9412 500.80454 L 811.077 500.80454 C 810.9754 500.80454 810.8881 500.84106 810.8151 500.9141 C 810.742 500.98716 810.7055 501.07446 810.7055 501.176 L 810.7055 505.89587 C 810.7055 505.99743 810.742 506.08473 810.8151 506.1578 C 810.8881 506.2308 810.9754 506.26735 811.077 506.26735 Z"/>
      <path d="M 828.8639 507.88595 C 828.5046 507.88595 828.1766 507.79864 827.8797 507.62403 C 827.5828 507.4494 827.3471 507.2137 827.1725 506.9168 C 826.9979 506.6199 826.9106 506.2919 826.9106 505.93267 L 826.9106 499.0392 C 826.9106 498.68 826.9979 498.35196 827.1725 498.0551 C 827.3471 497.7582 827.5828 497.5225 827.8797 497.34786 C 828.1766 497.17325 828.5046 497.08595 828.8639 497.08595 L 837.6806 497.08595 L 837.6806 498.71134 L 829.0828 498.71134 C 828.9228 498.71134 828.7907 498.76247 828.6867 498.86474 C 828.5826 498.967 828.5306 499.09993 828.5306 499.2635 L 828.5306 505.70837 C 828.5306 505.86837 828.5826 506.0004 828.6867 506.10446 C 828.7907 506.2085 828.9228 506.26056 829.0828 506.26056 L 837.6806 506.26056 L 837.6806 507.88595 Z"/>
      <path d="M 842.6118 507.88595 C 842.2587 507.88595 841.9349 507.7971 841.6405 507.61934 C 841.346 507.4416 841.1099 507.2055 840.9322 506.91106 C 840.7544 506.6166 840.6656 506.2928 840.6656 505.9397 L 840.6656 501.1322 C 840.6656 500.77907 840.7544 500.4553 840.9322 500.1608 C 841.1099 499.8664 841.346 499.6303 841.6405 499.45255 C 841.9349 499.2748 842.2587 499.18595 842.6118 499.18595 L 847.5583 499.18595 C 847.9217 499.18595 848.2504 499.2746 848.5443 499.45196 C 848.8382 499.6293 849.0733 499.8657 849.2497 500.1612 C 849.426 500.45665 849.5142 500.7803 849.5142 501.1322 L 849.5142 505.9397 C 849.5142 506.2928 849.4262 506.6166 849.2503 506.91106 C 849.0743 507.2055 848.8393 507.4416 848.5451 507.61934 C 848.251 507.7971 847.9221 507.88595 847.5583 507.88595 Z M 842.6557 506.26735 L 847.5145 506.26735 C 847.616 506.26735 847.7033 506.2308 847.7764 506.1578 C 847.8494 506.08473 847.886 505.99743 847.886 505.89587 L 847.886 501.176 C 847.886 501.07446 847.8494 500.98716 847.7764 500.9141 C 847.7033 500.84106 847.616 500.80454 847.5145 500.80454 L 842.6557 500.80454 C 842.5541 500.80454 842.4668 500.84106 842.3937 500.9141 C 842.3207 500.98716 842.2842 501.07446 842.2842 501.176 L 842.2842 505.89587 C 842.2842 505.99743 842.3207 506.08473 842.3937 506.1578 C 842.4668 506.2308 842.5541 506.26735 842.6557 506.26735 Z"/>
      <path d="M 852.289 507.88595 L 852.289 499.18595 L 859.1913 499.18595 C 859.5458 499.18595 859.8709 499.2748 860.1664 499.45255 C 860.462 499.6303 860.6977 499.8664 860.8736 500.1608 C 861.0496 500.4553 861.1375 500.77907 861.1375 501.1322 L 861.1375 507.88595 L 859.519 507.88595 L 859.519 501.176 C 859.519 501.07446 859.4824 500.98716 859.4094 500.9141 C 859.3363 500.84106 859.249 500.80454 859.1475 500.80454 L 854.2886 500.80454 C 854.1871 500.80454 854.0982 500.84106 854.0219 500.9141 C 853.9457 500.98716 853.9075 501.07446 853.9075 501.176 L 853.9075 507.88595 Z"/>
      <path d="M 864.214 507.88595 L 864.214 498.2822 C 864.214 497.92407 864.3013 497.5975 864.4759 497.3024 C 864.6505 497.0073 864.8848 496.7725 865.179 496.59786 C 865.4731 496.42325 865.8021 496.33595 866.1658 496.33595 L 869.4004 496.33595 L 869.4004 497.95993 L 866.204 497.95993 C 866.1025 497.95993 866.0152 497.99645 865.9421 498.0695 C 865.8691 498.14255 865.8325 498.22993 865.8325 498.33165 L 865.8325 499.18595 L 869.4004 499.18595 L 869.4004 500.80454 L 865.8325 500.80454 L 865.8325 507.88595 Z"/>
      <path d="M 873.9158 507.88595 C 873.5627 507.88595 873.2389 507.7971 872.9444 507.61934 C 872.65 507.4416 872.4139 507.2055 872.2362 506.91106 C 872.0584 506.6166 871.9696 506.2928 871.9696 505.9397 L 871.9696 501.1322 C 871.9696 500.77907 872.0584 500.4553 872.2362 500.1608 C 872.4139 499.8664 872.65 499.6303 872.9444 499.45255 C 873.2389 499.2748 873.5627 499.18595 873.9158 499.18595 L 878.8623 499.18595 C 879.2257 499.18595 879.5544 499.2746 879.8483 499.45196 C 880.1422 499.6293 880.3773 499.8657 880.5537 500.1612 C 880.73 500.45665 880.8182 500.7803 880.8182 501.1322 L 880.8182 504.34806 L 873.5882 504.34806 L 873.5882 505.89587 C 873.5882 505.99743 873.6247 506.08473 873.6977 506.1578 C 873.7708 506.2308 873.8581 506.26735 873.9596 506.26735 L 880.8182 506.26735 L 880.8182 507.88595 Z M 873.5882 502.8333 L 879.19 502.8333 L 879.19 501.176 C 879.19 501.07446 879.1534 500.98716 879.0804 500.9141 C 879.0073 500.84106 878.92 500.80454 878.8185 500.80454 L 873.9596 500.80454 C 873.8581 500.80454 873.7708 500.84106 873.6977 500.9141 C 873.6247 500.98716 873.5882 501.07446 873.5882 501.176 Z"/>
      <path d="M 883.7786 507.88595 L 883.7786 501.1322 C 883.7786 500.77907 883.8675 500.4553 884.0452 500.1608 C 884.223 499.8664 884.4596 499.6303 884.7551 499.45255 C 885.0507 499.2748 885.3758 499.18595 885.7305 499.18595 L 890.5877 499.18595 L 890.5877 500.80454 L 885.7687 500.80454 C 885.6671 500.80454 885.5798 500.84106 885.5068 500.9141 C 885.4337 500.98716 885.3972 501.07446 885.3972 501.176 L 885.3972 507.88595 Z"/>
      <path d="M 895.0212 507.88595 C 894.6681 507.88595 894.3443 507.7971 894.0499 507.61934 C 893.7554 507.4416 893.5193 507.2055 893.3416 506.91106 C 893.1638 506.6166 893.075 506.2928 893.075 505.9397 L 893.075 501.1322 C 893.075 500.77907 893.1638 500.4553 893.3416 500.1608 C 893.5193 499.8664 893.7554 499.6303 894.0499 499.45255 C 894.3443 499.2748 894.6681 499.18595 895.0212 499.18595 L 899.9677 499.18595 C 900.3311 499.18595 900.6598 499.2746 900.9537 499.45196 C 901.2476 499.6293 901.4827 499.8657 901.6591 500.1612 C 901.8354 500.45665 901.9236 500.7803 901.9236 501.1322 L 901.9236 504.34806 L 894.6936 504.34806 L 894.6936 505.89587 C 894.6936 505.99743 894.7301 506.08473 894.8031 506.1578 C 894.8762 506.2308 894.9635 506.26735 895.065 506.26735 L 901.9236 506.26735 L 901.9236 507.88595 Z M 894.6936 502.8333 L 900.2954 502.8333 L 900.2954 501.176 C 900.2954 501.07446 900.2588 500.98716 900.1858 500.9141 C 900.1127 500.84106 900.0254 500.80454 899.9239 500.80454 L 895.065 500.80454 C 894.9635 500.80454 894.8762 500.84106 894.8031 500.9141 C 894.7301 500.98716 894.6936 501.07446 894.6936 501.176 Z"/>
      <path d="M 905 507.88595 L 905 499.18595 L 911.9023 499.18595 C 912.2568 499.18595 912.5819 499.2748 912.8774 499.45255 C 913.173 499.6303 913.4087 499.8664 913.5847 500.1608 C 913.7606 500.4553 913.8486 500.77907 913.8486 501.1322 L 913.8486 507.88595 L 912.23 507.88595 L 912.23 501.176 C 912.23 501.07446 912.1934 500.98716 912.1204 500.9141 C 912.0474 500.84106 911.96 500.80454 911.8585 500.80454 L 906.9997 500.80454 C 906.8981 500.80454 906.8092 500.84106 906.7329 500.9141 C 906.6567 500.98716 906.6186 501.07446 906.6186 501.176 L 906.6186 507.88595 Z"/>
      <path d="M 918.5139 507.88595 C 918.1607 507.88595 917.8369 507.7971 917.5425 507.61934 C 917.248 507.4416 917.0119 507.2055 916.8342 506.91106 C 916.6565 506.6166 916.5676 506.2928 916.5676 505.9397 L 916.5676 501.1322 C 916.5676 500.77907 916.6565 500.4553 916.8342 500.1608 C 917.0119 499.8664 917.248 499.6303 917.5425 499.45255 C 917.8369 499.2748 918.1607 499.18595 918.5139 499.18595 L 925.3916 499.18595 L 925.3916 500.80454 L 918.5577 500.80454 C 918.4561 500.80454 918.3688 500.84106 918.2958 500.9141 C 918.2227 500.98716 918.1862 501.07446 918.1862 501.176 L 918.1862 505.89587 C 918.1862 505.99743 918.2227 506.08473 918.2958 506.1578 C 918.3688 506.2308 918.4561 506.26735 918.5577 506.26735 L 925.4162 506.26735 L 925.4162 507.88595 Z"/>
      <path d="M 930.0639 507.88595 C 929.7107 507.88595 929.3869 507.7971 929.0925 507.61934 C 928.798 507.4416 928.5619 507.2055 928.3842 506.91106 C 928.2065 506.6166 928.1176 506.2928 928.1176 505.9397 L 928.1176 501.1322 C 928.1176 500.77907 928.2065 500.4553 928.3842 500.1608 C 928.5619 499.8664 928.798 499.6303 929.0925 499.45255 C 929.3869 499.2748 929.7107 499.18595 930.0639 499.18595 L 935.0103 499.18595 C 935.3738 499.18595 935.7024 499.2746 935.9964 499.45196 C 936.2903 499.6293 936.5254 499.8657 936.7017 500.1612 C 936.878 500.45665 936.9662 500.7803 936.9662 501.1322 L 936.9662 504.34806 L 929.7362 504.34806 L 929.7362 505.89587 C 929.7362 505.99743 929.7727 506.08473 929.8458 506.1578 C 929.9188 506.2308 930.0061 506.26735 930.1077 506.26735 L 936.9662 506.26735 L 936.9662 507.88595 Z M 929.7362 502.8333 L 935.338 502.8333 L 935.338 501.176 C 935.338 501.07446 935.3015 500.98716 935.2284 500.9141 C 935.1554 500.84106 935.0681 500.80454 934.9665 500.80454 L 930.1077 500.80454 C 930.0061 500.80454 929.9188 500.84106 929.8458 500.9141 C 929.7727 500.98716 929.7362 501.07446 929.7362 501.176 Z"/>
    </g>
    <g id="amlc-large">
      <path d="M 645.4245 484.34124 L 645.4245 442.20324 C 645.4245 440.4295 645.8591 438.8037 646.7283 437.3258 C 647.5976 435.8479 648.77114 434.67437 650.249 433.8051 C 651.7269 432.93586 653.3527 432.50124 655.1265 432.50124 L 687.5242 432.50124 C 689.298 432.50124 690.9238 432.93586 692.40165 433.8051 C 693.8795 434.67437 695.05946 435.8479 695.9415 437.3258 C 696.8235 438.8037 697.2645 440.4295 697.2645 442.20324 L 697.2645 484.34124 L 688.548 484.34124 L 688.548 466.582 L 654.0645 466.582 L 654.0645 484.34124 Z M 654.0645 457.90374 L 688.548 457.90374 L 688.548 442.507 C 688.548 442.144 688.4175 441.832 688.1565 441.571 C 687.8955 441.31 687.5835 441.1795 687.2205 441.1795 L 655.3931 441.1795 C 655.0293 441.1795 654.717 441.31 654.456 441.571 C 654.19496 441.832 654.0645 442.144 654.0645 442.507 Z"/>
      <path d="M 724.4725 484.34124 L 724.4725 432.50124 L 734.3241 432.50124 L 753.7652 455.66724 L 773.1681 432.50124 L 783.0568 432.50124 L 783.0568 484.34124 L 774.3786 484.34124 L 774.3786 444.6276 L 753.7652 469.1751 L 733.1125 444.66586 L 733.1125 484.34124 Z"/>
      <path d="M 810.3605 484.34124 L 810.3605 432.42924 L 819.0005 432.42924 L 819.0005 475.663 L 862.2005 475.663 L 862.2005 484.34124 Z"/>
      <path d="M 895.0785 484.34124 C 893.2927 484.34124 891.6639 483.9066 890.192 483.03736 C 888.7201 482.1681 887.5496 480.99756 886.6803 479.5257 C 885.8111 478.0538 885.3765 476.425 885.3765 474.63924 L 885.3765 442.20324 C 885.3765 440.4175 885.8111 438.7887 886.6803 437.3168 C 887.5496 435.8449 888.7201 434.67437 890.192 433.8051 C 891.6639 432.93586 893.2927 432.50124 895.0785 432.50124 L 937.0725 432.50124 L 937.0725 441.1795 L 896.5972 441.1795 C 895.8292 441.1795 895.2071 441.41123 894.7308 441.87474 C 894.2546 442.33824 894.0165 442.96636 894.0165 443.7591 L 894.0165 473.08336 C 894.0165 473.85136 894.2546 474.4733 894.7308 474.9492 C 895.2071 475.42505 895.8292 475.663 896.5972 475.663 L 937.0725 475.663 L 937.0725 484.34124 Z"/>
    </g>
  </g>
</svg>
